<svg id="Layer_1" xmlns="http://www.w3.org/2000/svg" viewBox="0 0 510 510"><style>.st0{fill:#fff}.st1{fill:#536466}.st2{fill:#323c3d}.st3{fill:#ccc}.st4{fill:#748b8e}.st5{fill:#a6c7cb}.st6{fill:#95b3b7}.st7{opacity:.15;fill:#fff}</style><circle class="st0" cx="255" cy="255" r="246"/><path id="XMLID_13_" class="st1" d="M153.2 479.7l37.6 14.3 38.2 7.8 41.7 1.8 43.5-10.1 49.5-17.9 38.8-20.9 27.2-24.3c-.1-.2-.1-.4-.2-.5-2.2-6-5-11.4-8.8-15.8-9.3-12-12.3-21.8-19.3-34.9-3.3-5.5-6.1-11.4-9.9-16.9-6-8.2-6.5-6-15.8-3.3-18.5 4.9-38.7 4.4-57.8 8.7-33.8 7.1-68.1 10.9-101.9 17.4-12.5 2.2-24 2.2-33.2 11.4-8.7 8.7-10.9 21.3-14.7 32.7-4.4 12-15.3 42.5-17 42.3-2.4-.3-5.7.4-9.5 1.7l11.6 6.5z"/><path id="XMLID_49_" class="st2" d="M198 492.6c-.5 1.3-1 2.6-1.4 3.8 2.5-4.4 4.7-8.8 6.5-13.7-1.9 1.1-2.7 4.4-5.1 9.9zm52.8-19.3c-10-.7-19.3-3.6-28.5-6.4-15.7-6.4-13.6-7.1-17.1 8.6-.6 2.5-1.3 4.9-2.1 7.2 1.5-.8 3.6-.2 7.8 2 7.8 3.6 10 7.8 18.5 10.7 8.6 3.2 19.9 3.6 28.4 8.1h18.9c-2.9-7.2-5.8-14.4-9.2-21.7-4.3-9.9-4.5-7.7-16.7-8.5zm-77.8-56l-.9-.4c-1.5 4.7-3 9.6-5.1 14.3-1.7 4.3-4.7 9.2-4.9 14.1 2.8.4 6 .2 8.1 2.1 0-3-.2-5.3 1.5-8.1 1.3-2.4 4.5-7.3 5.6-9.4 1-2.4-3.5-12.9-4.3-12.6zm236-18.9c-1.1-8.8-12.4-28-18.6-35-11.4-12.1-25.4-2.1-38.2 7.2-17.8 12.1-20.7 24.3-21.4 44.2-.7 13.6-2.9 29.2-13.6 37.8 8.6-2.9 15.7 4.3 24.3 2.9 9.3-1.4 12.1-12.1 21.4-15.7 3.6-1.4 10-.7 12.8-2.1 3.6-2.1 5.7-9.3 8.6-13.6 5-5.7 9.1-8.2 20-10.3-4.4-6.8 5.5-7.9 7-13.1l-2.3-2.3zM195.9 498.6c.9-2.4-.2.2.7-2.1-1.4 2.4 2.2-.3.7 2.1h-1.4z"/><path id="XMLID_14_" class="st0" d="M180.7 398.5c-3.2 4.8-6.7 10.2-6.4 16.3.3 5.1 5.1 12.4 2.9 17.2-1.6 3.2-5.4 4.8-6.4 8.9-1 3.5-.6 6.1 1.3 9.2 3.5 6.4 12.4 7.7 18.5 11.2-1.6 4.5 13.1 10.5 17.5 11.2 3.2.3 7.7-1.9 10.5-.6-.3 0 2.9 3.5 3.2 4.1 1.3 1.3 2.9 2.6 4.1 3.8 12.1 10.2 33.5 1.6 44.3-6.7 3.2-2.2 6.7-5.1 9.2-7.7 4.8-4.5 3.2-6.1 9.9-5.1 7 1 13.8 1.2 21.2-.1 16.3-3.2 30.2-15.6 31.2-32.5.3-4.8.6-10.2.3-15-4.8 9.3-14.7 13.7-23.9 17.2 1-1.6 1.6-3.2 1.9-5.1-6.4 4.8-6.7-9.3-8.9-13.7-3.5 8.9-21.4 18.5-30.3 20.4 1.3-5.7 1.6-13.1.3-19.1-1.6 3.8-7.7 6.1-10.8 8.6-4.1 2.9-8.6 5.1-13.4 6.7-5.1 1.9-8.6 3.5-13.1 6.1-3.5 1.6-8.3 4.5-12.1 5.1-.3-3.2-3.2-1.9-5.4-3.2-2.6-1.6-3.8-3.8-5.4-6.1-3.5-4.8-6.7-9.6-8-15.3-3.8 2.9-7.3 10.2-8 15-2.9-1.9-6.4-1-8.9-3.5-1.6-1.3-5.4-6.4-6.1-8.3-1.3-2.9-1-6.7-1.6-9.9-.6-2.9-1.9-5.7-2.2-8.9-1 0-4.5-.3-3.5-.3"/><path id="XMLID_32_" class="st3" d="M342.9 413.9c-6.6 5.5-14 13.7-22.8 16.2 8.8-9.9 7.4-21.4-5.2-27.4-9.9-4.4-25.2-.3-35.9.5-18.4 1.4-37.3 7.7-55.9 2.7-9.6-2.5-18.9 0-28.5-.5.5-3.3-6.9-12.6-10.7-11.2-3.6 1.1-7.1 10.7-6.9 12.9l-.8.3c-.3 6.6 2.7 15.1 6.6 20 4.1 6 8.8 6.6 14.8 9.3 4.7 2.5 8 6.9 14 8.8 3.3 1.1 9.9 2.7 12.6 0-3.8-1.4-13.2-3.8-15.1-7.7-1.4-3 .8-8 4.4-8.2 3.8 4.7 9.1 9.6 14.5 12.3 5.2 2.2 8.8 2.7 12.9 6.3 2.2 1.6 4.9 4.4 8 4.1 3-.3 6.7-4.6 9.9-4.9 12.2-1.4 17.8-8.1 15.9-3.3-1.9 4.9 11.2-5.5 16.5-7.4 5.1-1.7 9.1-4 13.3-6.6.6-.4 1.7-.3 1.6.1-.9 5.8-2.4 10.8-8.1 13.6-2.7 1.1-9.2 1.9-12.2 2.5-4.7.5-1.8 1.4-4.8 5.5 11.2 2.7 24.7-.8 31.8-9.6 4.1-4.9 11.2-4.1 17-6.3 5.2-2.2 8.5-5.5 12.6-8.8.3-4.4.8-8.8.5-13.2zm-86.6 44.6c-2.1.2-3.5 3.3-5.8 4.5-4.4 2.3-5.9 4.1-11.2 4.2-2.5.1-7 .2-10.5-.7 7 4.4 16.4 7 24.3 4.7 2.9-.8 5.2-3.3 8.1-4.4 2.3-.8 4.6-.6 6.8-1.2 3.1-1 7.5-4.1 7.5-7.7-3.9.6-3.7 2.4-7.8 2.5-2.2.1-9.3-2.1-11.4-1.9zm-30.9 6.6c.8.7 2.1 1.1 3.4 1.5-1.2-.8-2.4-1.6-3.4-2.4v.9z"/><path id="XMLID_12_" class="st4" d="M462.2 267.9c4.1-.3 8.2 0 11.8 1.2-5.7-10.7-4.3-24.7-5.7-36.3-1-8.3-7.3-11.3-14.3-15.7-5-3-16.3-6.7-14.7-13.7 3.7 1 9 1 11.7 3.7 0-3.3-2-6.3-3-9.3-5.3-15.3-.3-30.3-11.7-43.7-5.7-6.7-12.7-14-20.3-18.3-5.3-3.3-18-7-20-13.3.3 0 .7.3.7.3.3-9-8.7-18.3-16.3-22.3-5-2.3-21.7-9.7-8.7-13-4-2.7-8.3-6.3-11.3-10.3-2.3-2.3-3.3-5.7-6.3-7.3h-.1c-.6-.6-1.5-1.4-2.7-2.2-5-3.5-12-6.5-17.5-6.5-10.2-.5-19.1 1.4-28.8 3.8-.4-.2-.7-.3-1.1-.4-4.7-7-14.3-.3-20.1 1.1-3.5-7.5-12.5-18-19.5-22-8.5-4.5-16.5-2.5-24.5-1 0-8.5-16.5-7-22-5-8.5 3-12.5 10-13.5 14-20-7-32.5 8.5-37 16.5-3 6 3.5 17-2.5 17-7 0-10 6-10.5 12l-2-1c-12 4.5-23.5 13.5-29.5 25.5-8.5 16.5-6 40-19 54.5 10-3-2 20.5-6.5 24 3-.5 6.5.5 9.5.5.5 13-3 24.5-12.5 34 1.5-.5 7-1 8.5-1.5 1.5 10.5-9 14.5-15 20.5 7 2.5 11.9 2.6 8.5 11.5-.5 5.5-2 11-.5 16.5 3-6.5 12-18.1 15-8 2.6 8.8-5 20-7.5 28 9.5-6 6.5 19 5.5 24.5 3.2.6 6-1.5 9.5-1-.5 9 1.5 10-5 18 2.9 1.1 9 2 12.5 0 2.5 3 4 8 4.5 11.5 6.2.3 16-4 23-7 1.5 6.5 4 14.5 5.5 21 1.5-.7 2.9-1.3 4.3-1.9 1.4 7.8-.7 18 4.2 25.9 6-5 11.5 7 19.5 6 3.5 13 5 23.5 17 30.5.5-6 5-12 10.5-14 1.5 5.5 7.1 18.6 16 22 5.8 2.2 16-4.8 22-11.3-.5 2.5-2.5 2.8-3 4.8 14.5-1.5 20.3-8.5 33-18.5 0 7 1 13.5-1.5 20.5 12.5-9 23.8-7.4 30.3-22.4.5 5 5.2 11.6 4.2 16.6 4-2 2.8-4 7.3-3.5-1.5 3.5-1.5 3.2-3.5 6.2 16.4-3.7 24.9-15.2 28.3-27.8 4.5 1.5 8.5 5 11.2 9.6 3-9 5.8-21.7 3.3-31.2 5.9 7.3 19.3 7.2 25.8 5.2-1.2-1.6-3.5-4-5.2-5.2 2.4 1.3 5.4.3 8.3-1-1.5-8.5-9.2-23.9 14-17.5-3.5-4.5-10-30-3.5-33 6-3 19.5 8 19 0-2.5-.5-5.5 1-3.5-2 1-1.5 9-2 11-2 7-1 18-7.5 23-13-.5 3 1.4 4.9-1.5 11.5 4.5-6.5 8-11 9-19 1-5 1.5-8 5-12.5 2.5 3.1 3.9 4.3 5 7-.6-7.3-6.7-21.3-6.1-30.8z"/><path id="XMLID_10_" class="st5" d="M337.3 300.1c5.2-7.6 11-23.4 12-32.7 1.7-14.1 1.8-28.9 1.5-43.4-.3-8.6.3-24.9-1.7-33.5-2.4-8.6-4.9-9.1-9-16.7-1.4-2.4-6.5-7.6-6.2-10.4.7-3.4 6.2-5.9 6.9-10 1.4-7.9-4.4-18-12.6-21.1-6.9-2.4-11.5-.3-18.7-2-7.2-1.4-13.4-7.2-21.3-8.9-15.1-3.1-32.7 1.4-45.4 10l-.7.7c.7-.3-5.2 3.4-7.2 4.1-.2 0-.5.1-.7.1l1.1-1.5c-3.7-9.7-19.1-12.4-27.9-10.7-12.1 2.4-24.6 13.6-29.9 24.5-3.3 6.7-7.4 12.6-9.4 19.9-1.7 6.1-4.9 10.2-5.5 16.5-5.9-.9-8.6 14.6-4.5 16.6-.3 5.9-3.4 11.6-3.1 17.8.3 5.2 1 11.3 1.8 16.5 1.9 13.3-1.3 24.7-3.1 38.2-1.7 13.1-3.5 24.9 4.7 35.8 1.2-3.2 5.6-7.7 9.3-7.1 1 5.5 1.8 11.1 3.5 16.8 1.9 6.2 3.7 12.8 5.2 19 2.7 11.5 5.8 21.5 10.3 32.6 2 5 4.1 9.4 7.5 13.5 2.8 3.5 8.7 6.5 13.1 7.3 1.4.2 1.8-.1 3.2-.4 1.1-.3 2.3-.2 3.1-.4 1.5-.4 3.1-.1 4.5-.7 1.5-.6 1.8-1.5 3.1-2.3 2.3-1.5 4.6-2.8 6.9-4.1 2.5-1.4 6.1-1.1 7.7-3.7 2.2 2 8 3 10.8 4.6 4.8 2.8 13.2 9.5 18.7 8.8 9.3-.7 12.9-8.1 20.8-12.6 8.6-5.2 14.5-6.9 24.1-9.3 16.5-4.5 42-15.8 33.4-37.5-1.7-4.5-5.9-9.6-8.6-13.7-2.8-4.1-4.1-6.6-7.2-10.7-5.2-7.6-4.8-13.4-.7-22 2.6 2.5 8.1 8.7 10.2 12.1z"/><path class="st6" d="M251.7 204.5c6-6.9 16.2-11.9 25.4-12.4 8.8-.9 19.1 5.5 27.4 5 12-.9-3.4-8.3-8-9.7-6.9-2.3-14.8-2.3-21.7-1.8-8.8.5-37 6-37 17.6l-.9.5c-.5 2.3-.5 6.5 0 9.7 2.8 13.8 10.2-3.3 14.8-8.9zm-66-23.6c-8.4-12.7-8.8-24.6.3-37.8 3.7-6 12-10.6 18.9-12.9 5.1-1.8 11-4 18.5-3.2-9.7-11.1-34.2 4.3-41.1 13.1-9.7 11.6-18.5 28.5-18 43.3 7.6-3.6 15.4-3.8 21.4-2.5zm.3 0c-.1 0-.2 0-.3-.1.1.2.2.4.3.5v-.4zm-31.1 85.5c0-.2.1-.4.1-.6 0-.2.1-.4.1-.7.4-2.3-.1-1.5-.2 1.3zm175.8-118.7c.5 3.2-2.3 10.2-1.4 12.5 1.2 3.1 3.1 3.6 5.2 2.4.7-2 4.1-3.7 5.2-7.6 1-3.6 0-11.4-1.6-14.5-5.9-11.9-15.1-7.5-23.2-9.5 0 0 0 1.1-.1 1.1 3.9.4 7.4 2.1 10.3 5.1 3.3 2.6 4.7 5.8 5.6 10.5zm-44.4 154.9c-6-6-13-6.3-19.3-13.6-4.2 5.1-9.8 0-14.9-.4-6.5-.5-10.2 2.3-16.2 4.6-6.2 1.8-8.2 5.3-14.6.1-.3-2-3-7.4-3-9-.5-9.2 4.2-18.5 3.8-27.7-.5-8.8-1.4-12.8-.4-21.6.5-7.4-1-17.4-.5-25.9-6.4 2.1-9.2-.9-14-3.2 3.6 2.9 5.8 7.1 6.1 13.4.5 6-2.8 7.4-5.1 12.5-1.5 3.1-2.4-2.1-3.2-6 0 0-10.2-10.6-19.9-9.7-6.4.9-12 2-16.6 5.2-6.5-5.6-4.4-13.7 5-18.2 6.9-3.7 16.6-3.7 24-1.8.6.2 1.1.3 1.6.5-.7-.4-1.4-.7-2.1-1-8.3-3.7-17.6-7.4-26.3-5.5-23.9 4.6-13.5 27.6-13.2 44.9 0 1.7.3 2.8 1.4.7.7 15.6 13.3 33.1 28.9 27.4 14.4-5 21.1-26.4 21.7-25 3.7 7.9 6.5 19.2 4.2 28-1.7 6.7-8.3 12.7-7.1 19.5-7 13.4-17.8 25.1-16.5 41.3.5 5.5 3.2 6.9 5.5 11.6 1.4 3.7.5 7.9 1.4 12 4.2 15.3 12.9-1.8 19.9-6 17.1-10.6 35.1-7.3 50.8 4.6 11.6 7.9 14.3 0 19.9-9.2 4.2-7.4 13.9-12.5 12.9-22.2-.8-6.1-9.5-15.6-14.2-20.3zm-79.9-9.4l.3-1c-.1.3 0 .7-.3 1zm.4-1.3c-.1.1-.2.2-.2.3l.2-.7c0 .2.1.3.2.5-.1-.1-.1-.1-.2-.1zm70.3-86c-6.9.5-27.9 8.4-27.3 20.7-1 7.3 4.4 17.9 7 22.3 5.5 9.2 14.3 15.3 25 15.3 10.6 0 17.6-4.6 23.6-12.9 6.5-9.7 2.8-15.7 0-26.3-3.4-13.6-14-19.6-28.3-19.1zm61.5 94.6c2.6-10.4 8.8-20.8 11.4-31.7 2.1-9.4 1.6-20.8.5-30.1-1.6-20.8 5.1-40.5-6.8-58.2-2.1-3.1-5.6-6.5-7.5-10-.9.6-2.8 1.3-3.7 2.2-7.9 7.9-10.2 19.9-8.3 30.5 1.8 10.6 7.4 20.3 7.4 31 0 10.6-6.5 19.4-12 27.7-6 8.8-9.7 14.3-8.3 25.4.9 9.2 6 19.4 11.1 26.8 5.5 8.8 12.9 16.2 15.3 26.8.9 4.6 1.8 15.7-1.8 19.4l.5-.5c.5.5 1-.2 1.6.2 6.3-8.2 9.8-17.2 5.5-26.7-6.2-15.1-32.7-27-16.6-46.2-.2 6.1 7.1 10.3 11.7 13.4zm-139.4-98.7c2.4 1.2 5.1 2.7 8 4.1-2.2-1.7-4.9-3-8-4.1zm-44.3 62.6c-2.5 13.9-6.7 32.7 2.1 46.1 2.3-2.3 4.5-4.7 7.3-6.1-6.5-10.7-10.2-26.8-9.4-40z"/><path id="XMLID_23_" class="st4" d="M271.1 322.3c-2.9-1.5-6.9-1.5-10.1-2.2-6.5-1.1-14.1-2.2-20.7-1.1-3.6.7-6.9 2.5-10.5 2.5-3.6 0-5.4-1.8-8.7-.7-3.6 1.1-17.8 10.9-16.7 13.4l.7-.7c9.4 6.5 21.4 1.8 31.9 1.4 14.1-.7 31.5 5.8 43.1-4.3-3.2-2.5-5.4-6.5-9-8.3zm17.6-151.6c-16.9-2.4-28.6 6.2-42.3 15.1-2.4 1.7-18.9 16.2-7.6 16.9 2.8 0 7.6-5.9 10-7.2 3.1-2.1 6.5-3.4 10-4.8 13.1-4.8 32.7-9.3 45.1-1.4 1.4 1 3.4 3.1 4.1 3.4l.7.3c6.2-13.3-7.2-20.2-20-22.3zm-75 35.8c7.2-4.8-11.4-14.8-14.1-16.5-9.6-5.5-18.6-11.4-29.9-8.6-5.5 1.4-11.4 4.5-12.7 10-.3 2.1 0 5.2 0 7.6 0 1.7-.3 4.8 0 3.8l.7 1c8.9-11.7 21-9.6 35.8-5.9 3.7.7 17.4 10.3 20.2 8.6z"/><path class="st0" d="M260.1 231.7c4.6 4.4 11.7 4.9 17.5 5.1 7.1.2 13.4-.6 20.3-4.3-5-4.7-12.9-5.9-19.7-5.9-6-.2-15.1.6-19.2 5.7m-53.4 2.1c-5.6 4.8-7.4 5.2-13.3 6.6-6.2 1.4-15 2.2-22.7-3.1 9.9-8.1 26.1-6.6 36.4-4.9"/><path class="st1" d="M0 255C0 114.2 114.2 0 255 0s255 114.2 255 255-114.2 255-255 255S0 395.8 0 255zM87.4 87.4C44.5 130.3 18 189.5 18 255s26.5 124.7 69.4 167.6C130.3 465.5 189.5 492 255 492s124.7-26.5 167.6-69.4C465.5 379.7 492 320.5 492 255s-26.5-124.7-69.4-167.6C379.7 44.5 320.5 18 255 18S130.3 44.5 87.4 87.4z"/><path d="M214.1 66c6.1-1.1 12.7-1.7 18.2 1.9 7.7 5.1 9 18.9 2.2 25.1-1.7 1.6 2 .1 3.2-1 6-5.5 6.2-12.6 3-19.8-1.9-4.3-5.4-7-9.6-8.5 11.9-4.3 27.4-1 30.3 13 1.6 7.9-1.9 14.9-6.5 21-4.3 5.6-14.2 15.5-22 15.3-1.4 0-2.1 1 .5 1.1 8.1.2 15.5-5.9 20.8-11.4 7-7.3 13.3-15.4 12.3-25.9-1.7-17.9-25.3-19.6-38.3-13.9-.5-.1-1.1-.2-1.7-.3-6.3-.8-12.8.8-18.9 2-6.7 1.3-18.2 2.4-23.7-3-1.2-1.1-1.8.4-.6 1.6 8.1 8.1 21.1 4.5 30.8 2.8zm-16.5 328.5c-.2-1-4.1-.1-3.9 1 1.1 5.7 5.4 13.2 8 18.3.5 1.1 2.7 1.9.9-2-2.4-5.3-3.9-11.6-5-17.3zM164.9 96.8c10.7-1.3 17.4-4.3 26.9-9.4 5.2-2.8 10.3-6 15.6-8.5 7.1-3.3 13.1-3.2 17.9 3.5.9 1.2 4.6-.1 3.6-1.6-7-9.8-17.8-7.1-27-1.9-12.9 7.3-24.6 15.7-39.5 17.5-2.1.1-.2.7 2.5.4zm7.8 23.7c-15.1 11.2-21.3 33.2-35.5 45.1-1.7 1.4 2.2.2 3.1-.5 10.6-8.9 15-19.6 23.3-30.3 8-10.3 28.7-27.4 42-18.6 1.1.7 4.5-.8 3.6-1.5-11.7-7.6-26.7-1.4-36.5 5.8zm-18.5 197.2c-.6 4.7 1.3 11.3.7 16-.2 1.4 1.7-1.3 1.9-2.5.6-4.7-.3-9.3.3-14 .1-1.5-2.7-.7-2.9.5zm13.9 13.9c0-1.2-2.9-.5-2.9 1 0 13.7 3.6 28.4 5.8 42 .2 1.3 1.1-.6.9-2-2.3-13.6-3.8-27.2-3.8-41zm-18.7-107.8c2.3-1.2 1.2-2.1-.7-1.1-6.7 3.5-10.1 10.4-11.7 17.4-2.4 10.6-2.6 21.7-2.5 32.5 0 8.9.5 17.8.8 26.6.4 12.9 3.3 28.7-6.4 39-1.6 1.8 1.1 1.2 2.2 0 8.3-8.8 9.1-20.4 8.5-31.8-.5-9.2-.9-18.5-1.1-27.7-.3-10.5-.1-21.2 1.2-31.6.9-7.2 2.4-19.4 9.7-23.3zm-11.7-19.7c1.4-3.9 2.9-7.8 4.6-11.5.6-1.4 1.4-2.7 2.1-4.1l1.2-1.8c.7-1 5-3.6 2.5-3.3-5.5.7-8.5 7.3-10.5 11.8-3.5 7.8-6.1 16-8.3 24.3-3.1 12-3.6 24.8-5.2 37-1.9 14.6-3.3 28.7-10.5 41.6-.2.4 1.3.2 1.8-.7 11.8-21.3 12.4-45.3 15.9-68.8 1.4-8.5 3.6-16.5 6.4-24.5zM155 173c2.2-.8 1.8-2.6-.5-1.9-15 5.1-22.1 18.2-26.8 32.5-4.9 15-7 34.2-19.2 45.5-1.6 1.5 1.2 1.4 2.1.6 10.4-9.7 14.6-24.8 18.3-38 4.4-14.9 9.8-33.2 26.1-38.7zm-39.3.3c23.8-17 33.1-51.4 63.8-59.2 2.3-.6 1.9-1.8-.3-1.2-13.1 3.3-22.5 9.9-31.7 19.5-12.1 12.7-20.3 31.5-34.8 41.8-1.6 1.1 2.3-.4 3-.9zm248 9.4c1.9 6.9 1.9 14.5 7 20.1.9.9 3.5 1.5 2.6.5-5.4-5.9-4.2-16.8-6.4-24.1-2.6-8.5-13.4-10.7-20.5-14.7-1-.6-.6.9.9 1.8 3.5 2 7.3 3.4 10.5 5.7 3.4 2.5 4.8 6.9 5.9 10.7zm24.7 34.9c-8.1-14.1-4.3-32.7-8.7-47.7-4.2-14.1-18.9-21.7-31-28.1-3.5-1.8-6.6-1.3-3.6.3 12.8 6.8 26.8 15.4 31.2 30.1 4.4 14.7 1.4 30.6 9.3 44.4.5 1 3.1 1.6 2.8 1zm-16.7 7.2c.8.8 2.4.5 1.6-.4-10.8-11.8-13.3-29.1-18.2-43.8-1.2-3.7-3.4-1-2.9 2 2.8 15.4 8.6 30.3 19.5 42.2zm3.8 14.9c-.8 19.8-.9 41.3 14.8 55.8 1 .9 4.6 2.4 3.6 1.5-15.4-14.3-15.3-38.4-14.5-57.8.1-1.6-3.8-.7-3.9.5zm38.1 73c-24-3-48.3-22.2-52.9-46.5-.3-1.3-4.1-.4-3.9 1 4.7 24.9 28.9 43.4 53.4 46.5 1.3.3 5.6-.7 3.4-1zm16.9-19.5c-19.8-1.7-36.2-19.3-39.8-38.3-.3-1.5-4.2-.5-3.9 1 3.8 20.2 20.4 36.9 41.2 38.7 1.7.1 5.1-1.1 2.5-1.4zm-99.1-167.8c12.2-2.9 23-6.1 35.5-2.5 9.7 2.8 18.6 9.1 27.5 13.8 1 .6 4.3-2 3.6-2.4-10.5-5.6-21-12.6-32.7-15.3-11.7-2.6-25 2.2-36.3 4.9-2.3.6.1 2 2.4 1.5zm-39.9-16.8c-.9.1.8.6 3.3.5 8.3-.6 15.9-4.6 22.7-9.2 7.7-5.2 15.4-12.1 19.4-20.6.2-.5-3.4-.2-3.8.7-3 6.3-8 11.3-13.2 15.8-6.4 5.4-19.8 12.1-28.4 12.8zm155.2 162c-26.2-.3-53.8-17.4-60.7-43.7-1.3-4.8-4.7-2-3.9 1 7 27 35.4 44 62 44.3.9 0 4.5-1.6 2.6-1.6zM279 111.3c11.8-13.3 29.7-18.2 40.3-32.7 1.5-2 1.8-4.8.7-3.3-10.6 14.4-32.6 21.3-44.3 34.7-1.6 1.9 2.1 2.7 3.3 1.3zm92.6 31.7c-1.8-.6-4.5 0-2.2.7 7.3 2.3 12.6 7.3 17.2 13.3 3.8 4.9 8 9.7 11.4 14.9 4.5 6.9 10.1 13.4 15.4 19.7 5.2 6.1 10.9 11.7 18 15.4 1.7.9 4.4.4 2.2-.7-15.8-8.4-24.7-27.7-35.6-41.1-7.8-9.3-14.2-18.3-26.4-22.2zm60.7 85.8c-12.1-2.9-28.5-1.7-35-14.2-.8-1.5-1.5-1.1-.5.7 5.6 10.8 16.5 13 27.6 15 6.5 1.2 12.8 2.7 18.6 6 8.1 4.8 14 13.1 17.4 21.6.7 1.8 4.5.7 3.9-1-6-14.6-16.6-24.4-32-28.1zM225.6 396.4c-1.3 7.6.7 15.2 2 22.8.1.8 1-1 .9-2-1.3-7.5-.3-14 1-21.5 0-.9-3.8-.2-3.9.7zm113.8-74.3c-2.7-3.9-6.2-7.4-9.2-11-5.4-6.3-5.7-12.9-3.4-19.9 2.4 4 5.4 6.4 9.7 9.3.7.7 2.4.5 3.2-.4.4-.4.6-.9.4-1.3-.1-1.1 1.4-3.3 1.8-4.2 1-2.2 1.9-4.4 2.8-6.6 2.5-5.8 4.8-11.7 6.6-17.7 4-13.5 1.5-27.8 1.4-41.7-.1-7.1.9-14.1.6-21.2-.2-6.3-1.4-12.4-2.6-18.5-2-10.2-10.7-17.5-16.1-26 8.8-4.2 10.2-15 4.6-23.7-3-4.6-7.7-7.6-12.8-8.9-2.7-.7-5.5-.9-8.3-.9-2.6 0-6.9 1.3-8.9-.5-1.4-1.4-3-2.5-4.7-3.5 7-.1 14-2 20.5-4.4 10.5-4 21.4-10.5 28.2-19.6 1-1.3 1.1-4.9.4-4-5.8 7.9-18.6 17.3-27.5 21.2-8.8 3.9-19.6 6.7-29.1 3.5-.3-.1-2.1-.5-2.5-.6-6.4-1.6-13.3-1.9-19.2-2-14.9-.2-26.4 6.7-38.5 14.2-4.7-7.4-14.4-10.4-22.7-11.3-9.6-1-18.2 3.9-25.2 9.8-8.9 7.5-15.5 17.4-20.4 27.9-2.1 4.5-3.9 9.1-5.2 13.9-.9 3.5-1.6 8.3-3.9 11.4-1.6 1.4-1.4 1.2-2.8 3-2.7 3.6-3.7 8.3-2.1 13.8.1.3.5 1.3.4 1.7-3.1 9.2-1.7 18.8-.4 28.3.8 5.7 1.3 11.5.8 17.3-.4 4.5-2.2 8.9-3.2 13.3-3.5 14.5-6.9 37 4.1 49.2.9 1 3.1.7 3.6-.6 1.3-3.2 4-5.1 6.9-6.7 1.1 12.8 3.5 25.3 7.2 37.6 1.9 6.2 4.1 12.3 6.5 18.3 2.1 5.3 4 11.6 7.1 16.4 4.4 6.6 8.4 13.2 16.6 15.4 4.4 1.2 9.4 1.3 13.8.1 5-1.4 9-5.5 13.7-7.9 6.4-3.3 11.2-.1 16.1 3.9 4.2 3.4 8.3 5.8 13.7 6.7 8.7 1.4 13.8-2.9 20-8 3.8-3.1 6.8-5.9 11.4-8 5.5-2.5 11.6-3.9 17.4-5.4 10.4-2.7 20.2-6.1 28-13.8 11.1-11.1 9.5-26 1.2-37.9zM160.9 188c1.1-1.6 2.2-2.6 3.7-3.6 6.4-4.4 15.9-2.4 22.4.7 5 2.4 9 6.3 14.1 8.7 5 2.4 11.8 5.7 11.1 12.1-14.7-7.3-40.4-18.9-53.5-5.2h-.3c-1.4-5.1-.4-9 2.5-12.7zm156.5 180.6c-10.3 3.4-21.3 4.8-30.8 10.3-6.8 4-11.7 12.6-20 13.3-6.7.6-11.8-3-16.8-7-3.2-2.6-6.7-5.1-11-5.3-4.8-.1-9 1.9-13 4.3-2.3 1.4-4.4 3.2-6.9 4.5-3.6 2-7.9 1.5-11.8.9-9.2-1.4-14.8-11.6-18.2-19.3-9.6-21.9-16.5-44.4-18.4-68.4-.1-1.4-1.7-1.6-2.8-1.1-3.6 1.8-7.3 3.8-9.7 7-8.4-12.3-4.9-32.1-1.9-45.3.9-3.9 2.3-7.7 3-11.7.9-4.9.4-9.9-.1-14.8-1-9.8-3.4-19.6-1.1-29.2.1-.4.8-1.6.9-1.7 10.4-18.1 38-2.2 51.7 4.4 4.1 2 5.1-2.4 5.3-3.1 1.7-7.7-6-11.6-11.8-14.4-7.5-3.7-13.3-10.4-21.5-12.5-5.6-1.4-12.2.2-17.6 2.6 1.3-3.1 1.9-6.6 2.7-9.6 2.6-10 8-19.7 14-28 6.2-8.5 15.4-17.7 26.2-19.5 8.7-1.5 20.2 3.2 25.5 10.4 2.4 3.2 3.4 1.8 4.6 1.1 10.6-6.5 20.8-13.5 33.6-14 10.6-.4 22.4.7 31.6 6.4 1.7 1.1 2.9 2.8 4.5 3.9 1.3.9 3.7 0 5.1-.1 5.4-.5 10.9-.2 16 1.9 8.8 3.6 15.2 23.3 3.1 26.8-.9.3-2 1.1-1.4 2.1 5.3 9.2 13.8 16.1 16.5 26.6 3.7 14.3 1.7 28.3 2 42.8.1 7.1.7 14.2.8 21.4.1 7.4-1.4 14.4-3.8 21.4-1.9 5.6-4.3 11.1-6.7 16.5-.5 1.2-1.5 2.8-2.3 4.4-3.7-2.7-6.3-5.3-8.3-10.5-.6-1.6-3.2-1.1-3.8.3-2.2 4.7-4.2 10.1-3.5 15.4.7 5 3.2 8.6 6.4 12.4 6.9 8 14.3 16 14.7 27.1.6 14.4-12.9 23.4-25 27.3zm65.3-37.9c2.3-1.2 1.9-2 .6-1.3-9.4 5-26.1 4.3-33.3-4.1-.9-1.1-4.6.3-3.6 1.5 8.6 10.3 25.3 9.8 36.3 3.9zm-102.1-163c-10.9.4-22.7 9.3-31.2 15.4-6.5 4.7-16.5 10.5-14.7 19.8.1.3 1.3 3.7 3.8 1.5 10.6-9.1 23.8-16.4 37.9-17.5 9.2-.7 26.4-1 30.4 8.9.9 2.2 3.3-.3 3.9-1.6 8.8-17.7-16.9-26.9-30.1-26.5zm27.7 23.5c-6.7-7.2-20.7-7.3-29.4-7.1-14.8.4-29.1 7.4-40.5 16.6-.5-7.5 8.1-12.2 13.4-16.2 7.5-5.7 17.8-12.4 27.4-13.4 11.2-1.1 32.7 6.4 29.1 20.1zm-9.5 40.9c-5.4-5.8-13-7.2-20.5-7-7.4.1-16.1 1.8-20.9 8-1.5 2 1.6 2.5 2.7 1.1 2.5-3.3 6.4-4.8 10.5-5.5-.4 2.9.9 5.7 3.1 7.5-2-.2-3.9-.5-5.9-1-1.1-.3-3.9 1.4-2 1.9 8.1 2 16.3 1.6 24.5.1 1.6-.3 2.7-2.4.4-2-2.3.4-4.6.7-6.9.9 1.2-1 2.2-2.3 2.7-3.9.4-1.2.5-2.4.3-3.5 3.3.8 6.4 2.2 8.7 4.8 1.4 1.2 4.6 0 3.3-1.4zm-49.2 5.9c2.7 15.5 16 24.9 31 27.5 1.1.2 3.5-1.5 1.4-1.9-14.5-2.5-27-11.8-29.6-26.6-.1-1.2-3-.3-2.8 1zm29.1-32.4c-12.2.1-27.6 6.5-29.9 19.8-.3 1.5 3.6.8 3.9-.5 2.2-12.8 16-17.4 27.3-17.2 11.5.2 23.1 5.6 24.8 17.7.2 1.3 2.1.4 1.9-1-2-14.5-14.9-18.9-28-18.8zM344.3 367c.4-1.3-3.4-.8-3.9.5-3.5 10.1.8 19 3.3 28.9.3 1.3 2.2.3 1.9-1-2.4-9.8-4.7-18.6-1.3-28.4zm44.7-42.9c-14.1.3-27.1-8-37.7-16.4-1.2-1-4.7.8-3 2.1 11.5 9.1 25.2 16.3 40.3 15.9 2.1 0 3-1.7.4-1.6zm88.1-55.5c-3.8-6.4-4.5-13.3-4.8-20.6-.3-7.7-1-14.5-4.5-21.5-2.2-4.4-5.1-7.4-9.6-9.3-4.3-1.9-8.5-4-12.7-6.2-.3-.2-.1-.1-.6-.4-1.2-.7-1.5-2.3-1.9-3.5-.2-.6-.3-1.3-.4-1.9 3 1.4 6.2 2.3 9.3 2.5.5 0 3.3-.6 2.7-1.7-8.5-15.6-5-34.8-15.2-49.8-5.1-7.6-12.7-14.3-20.1-19.6-6.2-4.5-13.6-7.4-19.7-12.1v-.1c-.4-8.5-5.6-16-12-21.3-5.6-4.6-14.3-6.6-18.5-12.8.9-.1 1.9-.2 2.9-.4 1.3-.2 3.3-1.7 1.3-2.6-7.4-3.4-12.6-9.8-17.1-16.1-3.2-4.5-8.3-8-13.4-9.9-12-4.5-24.2-2.5-36 2.3-5.1-5-15.9-3.2-21.8 1.1-2.6-7.3-5.9-13-12.4-18.4-8.8-7.2-21.3-7.4-31.8-5 .1-7-10.8-7.9-15.9-7.4-9.2.8-17.2 7.7-22.2 15.4-21.2-3.6-40.2 12.7-38.7 34.5-6.1.6-11.8 5.3-11.5 11.6-14.2 4.9-25.4 13.3-32.7 26.5-9.2 16.7-6 38.8-17.8 54.1-.9 1.1.2 2 1.4 1.9.8-.1 1.5 0 2.3 0 .4 7.4-4.2 15.5-9.2 20.6-3 3-1.2 3.2.9 3.3 2.9.1 5.4-.1 8-.4-.6 6 .2 12-1.9 17.8-2.2 5.8-7 10.5-10.3 15.7-1 1.6 2 1.5 2.7 1.2 1.7-.6 3.4-.8 5.1-1.2-2.7 7.3-9.1 12.2-14.6 17.6-.3.3-.5.9-.2 1.3 2.5 3 5.5 4.1 9.1 4.1 1 3.6-.8 7.3-2 10.7-1.6 4.9-1.5 9.6.2 14.4.6 1.6 2.6 2 3 .4 0-.2 3.7-8 6.2-10.4 1.9-1.9 4.9-3.5 6.2-.2 0 0 0 .1.1.1.4 3 .2 6.1-.5 9.1-1.6 7.1-6.7 13.7-7.4 21.1-.2 1.7 2.4.1 3.2-.4.7-.4 1.5-.8 2.4-1.1.6 8.4 1.4 16.6-.1 25-.2 1 1.1 1.2 1.8 1.2 2.6-.2 5.1-.7 7.6-1.5 1.1 5.9-.9 10.8-4.5 15.6-.5.7-1.9 2.1-1.7 2.2 3.7 1.7 10.4 1.3 14.8-.3 4 7.9 3.6 11.9 3.7 11.9 7.9-.6 16.4-3.4 23.3-7 2.3 6.7 2.5 14 4.6 20.8.2.8 2.6-.1 3-.3.4-.2.7-.3 1.1-.5.8 8.4 2.7 16.6 4.9 24.8.3 1 3.3-.3 3.7-.7.6-.5 1.3-.9 2-1.2 1.9 3.1 4.5 5.2 7.5 6.6 0 .1-.1.1-.1.2-9.4 23-18 46.4-28.1 69.1 1 .5 1.9 1 2.9 1.4 7.2-15.9 13.5-32.1 19.9-48.3.5 3.1 1.5 6.1 2.7 8.9-7.6 6.9-11.2 16-3.4 24.4 3.8 4 9 6.8 14.5 8.5.2.1.8.7.9.8 4.2 5.4 10.6 8.3 17.3 9.2-1.4 4.4-3.1 8.8-4.8 13 1.1.3 2.2.5 3.3.8 1.9-4.4 3.6-8.9 5.1-13.5 2.7.1 5.3-.2 7.9-.7 3.9 3.6 7 8.1 11.6 10.9 6 3.6 14.2 2.8 20.8 1.7 5.7-1 11.1-2.9 16.1-5.7 1.6 4.1 3.1 8.3 4.6 12.4 1.4-.1 2.7-.2 4.1-.3-1.8-4.7-3.5-9.5-5.3-14.2 6.6-4.2 12.4-9.8 17.2-16 14.5 5 33-.5 45.3-8.5 6.8-4.4 10.6-10.5 12.4-18.4 1.8-8.3 1-17.1 3.7-25.2.6-1.5 1.1-3.1 1.3-4.7 3 2.1 6.2 3.9 7.9 7.1.6 1.1 3.2.3 3.6-.7 3.5-8.8 4.5-17.3 4.6-26.6 7.7 3.9 16 4.6 24.8 1.6.5-.2 1.9-1.1.8-1.5-1.9-.8-3.8-1.7-5.4-2.9 1.7-.3 1.8-.4 4.4-1.1.8-.2 3.8-.8 3.4-2.2-.9-3.7-3-8.4-2.7-12.3v-.1c5.5 6.6 9 15.3 12.8 22.8 5.1 10 10.1 19.2 17.1 28.1 1.4 1.7 2.6 3.4 3.8 5.1 1-1 1.9-2 2.9-3-4-5.7-9-10.9-12.5-16.9-3.9-6.8-7.3-14-10.9-21-3.2-6.2-6.3-13.3-11.2-18.4-.1-.1-.2-.2-.4-.3 3.1-2.4 9.6.1 12.9.6.6.1 4-.5 3-1.7-5.6-7-8.8-18.5-7.7-27.3.3-2.2 1-5.4 3.9-4.9.7.1 1.4.3 2.1.5h.1c1.6.6 3.3 1.3 4.8 1.9 3.4 1.3 6.7 1.9 10.2.7.6-.2.8-.3 1.5-.7 1.2-.7 2-1.5.4-2.2-1.5-.6-3.3-1.2-4.6-2.3.1 0 .2 0 .3-.1.7-.1 1.5-.2 2.2-.3 3.1-.3 6.2-.4 9.3-.8 7.2-.9 14.4-5.8 19.6-11.3.1 2.9-.6 5.6-2.3 8.3-1.1 1.8 1.7 1.4 2.4.6 8.1-8.4 11.2-18.1 12.9-29 2.1 1.3 3.6 3.4 3.5 6.3 0 1.8 1.8.1 1.9-1.4.5-11.2-4.5-19.7-4.7-30.5 3.5 1.1 7.1 1.9 10.9 1.7.8.3 3.7-.3 3.2-1.2zM331.6 448.8c-10.7 9.3-31.4 15.2-44.9 9.4-1.2-.5-2.6-.1-3.3.9-8.6 11.8-20.8 20.9-35.5 23.4-6.2 1-13 1.1-18.3-2.5-3.4-2.3-5.9-6-8.9-8.9 1.3-.4 2.5-.9 3.7-1.4 2.3-1.1-1.2-1.3-2.3-.8-1.1.5-2.3 1-3.6 1.3-.3 0-.7.1-1 .2-8.4 1.9-18.1-.4-24.2-6.3 2.3.4 4.6.6 6.8.6s3-2.8.3-2.8c-8.3-.1-16.8-3.2-23.2-8.4-7.8-6.3-6.2-14.6-.1-20.9.5 1 1.1 2.1 1.6 3 4.6 8 11.1 15 20.1 17.7 6 1.8 13.1-.6 18.2 3.6 1.8 1.5 3 3.7 4.3 5.7 1.5 2.4 4.5 3.2 7.1 4.1 10.2 3.5 20.4-.2 28.1-7 11.6 3.2 23.9 0 29-13.2 9.6.7 21-2.7 22.5-13.5.2-1.1-3.7-.3-3.8.6-1.4 9.3-10 12.4-18.5 10.9-.9-.1-3.1.1-3.5 1.1-1.6 4.8-4 9.2-8.3 12-4.2 2.7-9.7 2-14.2.7-.4-.1-.8-.2-1.1-.3-.2-.1-2.1-.7-2.3-.8-6.1-2.4-11.9-6.7-15.8-11.9 6.8-1.5 13.2-4.1 18.1-7 1.6-1-2.3-.5-3-.1-13.4 8-37.5 11.6-46.6-4.5-.5-.9-4.2.5-3.9 1 6.2 10.9 18.9 13.1 31.2 11.3 4.3 5.8 10.6 10.3 17.3 12.7-5.2 4.8-11.1 7.8-18.4 7-5.5-.6-9.3-2.9-12.3-7.3-5.9-9-17.3-4.9-26-8.7-7.4-3.3-12.9-11.7-16.5-18.6-3.3-6.6-5.7-14.8-3-21.9.2-.4.8-2.5 1-3 .9-2.3 1.9-4.7 2.8-7 1 .2 2.1.4 3.2.5.3 11.8 6.7 24.9 17.4 30.1.8.4 3.2-.1 3.5-1.1 1.2-5.1 3.2-9.7 7.6-12.4 2.9 9 7.3 20.5 17.8 22.1.6.1 1.7.2 2.6-.1 8.4-2.7 9.8-3.5 13.7-6.1.2-.1 1.4-.3 1.8-.4 11-2.3 22.9-8.8 31.3-16.8.9 6.1 0 12.2-1.7 18.1-.5 1.8 2.6 1.1 3.2.7 5.6-3.5 11.8-6 17.5-9.6 4.6-2.8 8.2-6.3 11.3-10.6 1.5 4.1 1.8 8.4 2.6 12.8.2 1.4 2.5.8 3.2.4 1-.6 2-1.1 3-1.5-.5 1.4-1.3 2.6-2.5 3.8-.6.6-1.7 1.1-1.5 1.5-.1.7 1.7 1.4 3.1 1.1 7.3-1.8 16.6-7.1 23-14.1-1.4 11.3-.4 23.2-9.7 31.2zm132.1-183.1h-.2c.1-1.1.3-2.2.5-3.3.4-1.7-3.5-1.1-3.9.4-2.5 10.5 2.8 19.3 5.1 28.9-.9-.5-1.9-1-3-1.3-1-.3-2.9.2-3.1 1.4-1.2 7.9-2.4 15.3-5.7 22 0-1.4-.1-3.8-.4-5.2-.3-1.4-3 .3-3.5 1.1-4.2 5.5-11.4 12-18.4 13.2-3.8.7-7.7.6-11.5 1.1-1.5.2-5.4.6-5.7 2.7-.2 1.9 2.4 3.1 4.5 3.9-2.6.3-5.8-1.6-8-2.5l-1.8-.6c-4.7-2.1-8.6-3.2-13.8-3.3-1.3 0-4.2 1.8-1.6 1.9 2.7.1 5 .3 7.3.9-2.1.9-3.6 3-4.4 5.3-2.6 7.9.9 19.7 5.6 27.2-4.9-1.1-10.3-2-13.5 2.1-4.2 5.5-.6 10.7 1 16.8-7.2 1.7-11.3 1.4-10.5 2.3 1.8 2 4.1 3.3 6.5 4.4-8.7 2-16.9-1.2-23.9-6.8-1-.8-4.5.7-3.6 1.4.9.7 1.9 1.4 2.9 2.1 0 8.8-.5 16.8-3.1 24.9-2.8-2.6-6.5-4.3-9.2-7-1-1.1-3.9-.3-3.7 1.3 1.1 11.6-12.1 22.6-22.8 26.9 1.1-1.7 1.7-3.5 2.2-5.6.4-1.8-2.5-1-3.2-.7-1.9.8-2.7 1.4-4.1 2-.8-5-1.4-9.9-3.9-14.5-.7-1.3-3.1-.3-3.6.6-6.2 10.4-16.1 14.4-25.9 20 1.4-6.2 1.9-12.5.2-18.8-.4-1.5-2.8-.9-3.5 0-7 7.8-17.7 14.3-28.1 17.3 3.1-3.1 5.6-7 7.6-11.6.2-.6-3.4-.3-3.8.7-1.8 4.3-4.1 8-7 11-.3.3-2.5 2.3-2.8 2.6-3.1 2.5-6.9 4.3-11.3 5.1-.3.1-2.1.3-2.3.3-8.9-2.1-12.8-13.1-15.4-21.1-.1-.4-1.2-3.3-1.5-4.2-1.4-4.5-2.5-9-2.1-13.9.1-1.8-3.8-1.1-3.9.4-.5 6 1.1 11.5 2.9 17-5.2 2.6-8.2 6.6-10 12-9.5-6.4-14.8-19.9-13.9-30.9.1-1.3-3.8-.5-3.8.6 0 .5 0 1-.1 1.5-4.6-1.1-8.2-3.9-10.6-8.3-.5-.9-3.1.3-3.7.7-.5.4-1.1.7-1.7 1-2.1-8.1-4-16.3-4.7-24.7-.1-.9-3.3.4-3.7.7-.2.1-.4.3-.6.4-1.9-7-2.1-14.3-4.7-21-.3-.9-2.9.2-3.4.5-5.9 3.6-12.1 5.4-19 6.2.3 0-4.2-10.2-4.6-11.1-.4-.9-2.9.2-3.4.5-2.4 1.4-7.2 1.5-9.9.5 4.3-5.8 6.7-11.7 4.8-19-.2-.9-1.6-1-2.3-.7-2.2.7-4.3 1.3-6.5 1.7 1.4-8.7.3-17.2-.3-26-.1-1.1-2.2-.8-2.8-.5-.8.4-1.6.7-2.3 1 1.6-7.2 6.5-13.2 7.6-20.6.9-5.9-1.7-13.2-6.8-18.8-1.1-1.2-1.5 1-.5 2.7 1 1.7 1.8 3.6 2.3 5.5-1.4-.1-3 .3-4.5 1-3 1.4-5.4 3.9-7.2 6.7-.1-3.4.7-6.8 1.9-10.4 1.1-3.2 2-6.3.7-9.6-.3-.7-1-.9-1.7-.8-2 .3-3.9 0-5.6-1.1-2.3-1.3.2-2.6 1.1-3.5 2.1-2 4.2-4 6.2-6.1 3.1-3.4 5.4-7.2 6.6-11.6.4-1.5-2.2-1.1-2.8-.9-1.4.5-2.9.8-4.3 1 3.1-4.4 6.6-8.5 8.8-13.4 2.8-6.3 1.3-13.6 2.3-20.2.2-1.4-2-1.3-2.8-.9-1.5.8-5.5 1.3-6.6.6 5.7-5.8 10.2-14.8 9.3-23.1-.1-.7-1.2-.9-1.7-.9h-1.2c9.3-13.7 7.8-30.6 13.9-45.6 6.3-15.5 18.4-27.3 34.5-32.3.8-.2 1.8-.8 1.6-1.8-.9-5.2 3.3-9.1 8.4-9.1 3.3 0 3.2-1.3 3.1-1.9-2.4-19.6 13-37.8 33.3-33.3-.4.7-.8 1.4-1.1 2.2-.9 1.9 3 1.7 3.7.3 3.6-7.9 10.7-15 19.6-16.2 4.3-.6 14.6-1.2 13.1 5.8-.2 1.2 1.6 1.2 2.3 1 12.2-3.3 23.7-1.1 32.9 8.1 6.6 6.6 8.7 11.3 10.3 20.5 1.7 9.7-3.5 21.2-9.4 28.3-6.4 7.8-15 14.2-24.4 17.9-2.5 1 .7.7 2.6 0 17.8-7.1 38.1-25.8 35.9-47-.2-1.5-.6-2.9-1-4.3 4.4-5.2 16.9-7.3 19.2.8.5 1.6 4.3.5 3.9-1-.2-.6-.4-1.2-.7-1.8 12.6-5.1 27.4-5.7 39 1.6 6 3.8 8.5 7.8 11.8 12.5 2.2 3.1 4.9 5.7 8 7.8h-.9c-.7 0-2.6.9-2.1 1.9 2.9 6.2 9.6 8.2 15.3 11.4 6.9 3.9 13.3 11.5 15.5 19.3l-.1-.1c-.9-1.1-4.6.4-3.6 1.5 5.4 6.1 12.8 9.2 19.8 13.2 8.7 4.9 16.5 12.6 22.7 20.3 11.6 14.2 8.3 33.5 15.7 49.4-4.8-1.3-9.5-4.5-12.6-8-.9-1.1-4.6.4-3.6 1.5 1.4 1.6 2.9 3 4.8 4.3.2.1.2.5.2.7.3 2.7.6 7.8 3.5 9.1h.1c3.5 1.8 6.9 3.9 10.6 5.5 6 2.5 9 4.9 12 10.8 6.2 12.4 1.6 26.9 7.8 39.2-2.4-.1-5.3-1-8.1-2zm-78.6 81.6c-8.6 1.6-22.7 7.8-29.9.1-.7-.8-4.3.6-3.6 1.4 7.9 8.4 21.5 1.8 30.8.1 1.7-.3 5.4-2.1 2.7-1.6zm-18.2 26.2c-9.5.3-15.5-10.9-17.5-18.9-.3-1.2-4.2-.1-3.9 1 2.3 9.3 10.1 19.1 20.8 18.8 1.3-.1 3.2-1 .6-.9zm-71.4 14.4c.5 6.7-1.4 13-4 19.1-.5 1.2 1.3 1.8 1.9.5 2.7-6.3 6.5-13.7 6-20.6-.1-1.2-4-.4-3.9 1zm21.9-2.9c.5 7.1-1 14.3-5.2 20.2-.9 1.3.9 1.8 1.6.9 4.4-6.2 8-14.7 7.5-22.2-.1-1-4-.2-3.9 1.1zm-47.9 12.3c.3 9-4.5 16.8-9.2 24.2-.9 1.4-1.1 3.3 2.6-1 5.9-7 10.8-14.7 10.5-24.2 0-1.2-3.9-.4-3.9 1zm-29.4-6.4c-.6-1.8-4.5-.7-3.9 1 3 8.5 2.7 18.4.1 26.9-.7 2.2 1.2 3.1 1.7 1.5 2.8-9 5.2-20.4 2.1-29.4zm3.7 26.1c-.4 4 .1 6.7-2.4 9.9-.5.7-4 7.6 1.1 1.7 3.4-4 3.8-7.5 4.2-12.1.1-1.5-2.8-.8-2.9.5zM284 299c-2.7-1.6-5.5-2.9-8.2-4.7-3-2-6-6.4-7.8-9.5-.9-3.7-3.5-7.7-4.8-9.9-.8-1.3-4.5.1-3.6 1.6 1.7 2.8 3.3 5.6 4.2 8.8 0 .1.1.2.1.2.4 1.5.8 3.7-.3 5-.9 1-2.9.2-4.6-.7-.1-1-.4-2-1-2.7 0-.1-.1-.2-.1-.2-5.5-5.9-13.1-.8-18.3 2.9-4.7 3.3-10.1 7.9-15.8 3.9-3.4-2.4-3.9-7.3-3.9-11.1-.2-10.3 3.4-20.4 3.6-30.8.3-13.6-2.5-26.7-.4-40.2 3.1 2.2 9.1-1.8 11.7-4.4 1.7-1.6-2.1-1.9-3.2-.8-1.1 1.1-2.3 2-3.6 2.8-2.2 1.4-2.7-.5-2.9-2.4-.2-1.4-3-.5-3.5.1-1.4 1.6-3.3 1.8-5.2 2.5-2.5.9-.2 2.5 1.6 1.9.5-.2 1-.3 1.4-.5-2.5 13.6 0 26.8.2 40.4.2 11-3.5 21.5-3.6 32.4 0 2.7.5 5.4 1.6 7.7-2.5 1.4-6.4 2.5-8.5-.2-3-3.7 2.7-10.1 4.8-12.7 1.5-1.9-2.2-2.5-3.2-1.1-2.2 2.9-6.3 7.8-6.2 12.2v.8c-.4 5.1-4.2 9-7.1 13.1-3.7 5.3-5.5 11.8-6.6 18.1-.1.3.3 3 1.9-2 2-6.5 5.4-12.3 9.3-17.8 1.7-2.5 3.6-4.9 4.8-7.7 3.4 2.8 8.9 1.6 12.4-.3 2.2 2.8 5.4 4.4 9.8 3.7.9-.2 1.9-.4 2.7-.7.4 7.1 0 14.3-1 21.4-.1 1 3.7.3 3.8-.7 1.1-7.4 1.4-14.9 1-22.4 1.2-.6 2.3-1.4 3.5-2.2.7-.5 1.5-1.1 2.3-1.8 1.9.7 11.7 0 15.1 1 3 1.5 6.6 1.9 9.5 0 .6-.4 1-.8 1.4-1.3 3.1 3.7 6.8 6.2 11.5 8.8 10 5.6 17 13.6 21 24.1.4 1 2.2.8 1.9 0-3.7-10.2-8.3-18.9-17.7-24.6zm-33.1 100.3c0 5.2.1 10-1 15.2-.6 2.9-.1 4 1.8-.7 2-4.9 3-10.2 3-15.5 0-.6-3.8-.1-3.8 1zm28.4-72.9c-3.7-3.2-10.2-6-13.7-6.7-8.3-1.6-18.1-3-26.5-1.3-2.8.6-5.4 1.6-8.4 1.4-2.3-.2-4.5-.7-6.8-.6-3 .1-6 1.8-8.6 3.1-2.6 1.3-9.2 4.8-11.6 8.2-.2.3-.4.6-.5.8-1 2.6-.9 5.7-.5 8.4.1.8 4 0 3.9-1-.2-1.3-.3-2.7-.2-4.1 9.7-4.5 19.5-6.1 30.2-6.7 6.9-.4 13.8-.3 20.6 0 3.2.1 6.4.4 9.6.8 2.9.3 7.3.3 9.4 2.7-1.2.6-2.4 1.4-3.7 1.8-2.7.9-5.8 1.4-8.7 1.7-5.4.6-10.8-.3-16.2-.8-4.2-.4-8.5-1-12.7-.7-8.1.5-15.9 4.4-24 1.8-1.7-.6-4.6 1.9-2.2 2.7 6.7 2.1 13.1.7 19.7-.7 6.5-1.4 12.7-.7 19.2 0 5.3.6 10.5 1.2 15.8.7 2.7-.2 5.4-.9 8.1-1.6 2.5-.6 4.5-2.2 6.9-2.8.3.9.5 1.9.6 2.8.1.8 4-.1 3.9-1-.3-2.1-1-4.1-1.8-6-.2-1.1-.9-2.2-1.8-2.9zm-13-.5c-7.8-.8-15.8-.9-23.6-.8-12.3.2-24 1.6-35.2 6.2 1.7-3.3 9.4-6.8 11.4-7.8 3.1-1.6 5.8-1.8 9.3-1.2 3.3.6 6.2 0 9.4-.8 6.8-1.8 14.3-.8 21.2 0 3.8.5 7.8 1.1 11.3 2.8 1 .5 2.6 1.4 4 2.4-2.6-.5-5.5-.6-7.8-.8zm-31 16.1c-9.4.7-21.3 4-25.9 13.1-1 2 2.9 2 3.7.5 4-8 14.9-10.2 23-10.8 8.2-.6 19 .6 24.7 7.3 1.2 1.4 4.8-.2 3.5-1.7-6.8-8-19.2-9.1-29-8.4zm-25.1-100.9c.2-1.4-2.6-.7-2.9.5-2.1 12.2-10.3 21.5-21.9 26-2.5 1-.2 2.1 1.5 1.5 12.5-4.8 21-14.7 23.3-28zm-11.7-2.2c-1.7.5-3.4.9-5.2 1.3 1.2-1 2.1-2.4 2.4-4 .2-1 .3-2.1.1-3.1 2.8.4 5.5.9 7.9 1.8 4.1 1.6 5.1-1.9 5.1-2.5.2-17.5-25.4-21.4-37.2-14-2.2 1.4 1.1 2 2.4 1.2 10.2-6.4 30.9-2.1 31 12-11.6-3.4-26.8-1.4-36.6 5.4-1.7 1.2 1.9 1.4 2.7.9 2.8-2 6.3-3.4 10.1-4.2-.3 3.3 1.5 6.4 4.5 7.6-2.5.2-5.1.2-7.6-.2-1.4-.2-3.4 1.7-1.2 2 7.4 1 15.2-.5 22.3-2.5 1.8-.4 1.3-2.3-.7-1.7z"/><path class="st7" d="M508.7 255c0 140.1-113.6 253.7-253.7 253.7S1.3 395.1 1.3 255 114.9 1.3 255 1.3 508.7 114.9 508.7 255z"/></svg>